<svg xmlns="http://www.w3.org/2000/svg" data-name="Layer 1" viewBox="0 0 100 125" x="0px" y="0px"><defs><style>
      .cls-1 {
        fill-rule: evenodd;
      }
    </style></defs><path class="cls-1" d="m89.93,13.045l-1.419-2.025c-.161-.19-.258-.436-.258-.705,0-.603.489-1.092,1.092-1.092h.537l-2.958-4.223-2.958,4.223h.537v.005c.215,0,.433.063.623.196.492.344.613,1.022.269,1.515l-4.172,5.956h1.737v.005c.215,0,.433.063.623.196.492.344.613,1.022.269,1.515l-2.763,3.944h11.67l-2.705-3.862c-.161-.19-.258-.436-.258-.705,0-.603.489-1.092,1.092-1.092h1.737l-2.696-3.848h0ZM18.609,62.487l-2.005-3.293c-.127-.179-.202-.397-.202-.633,0-.603.489-1.092,1.092-1.092h1.702l-5.056-8.303-5.056,8.303h1.702v.003c.194,0,.39.051.567.16.514.313.676.984.363,1.498l-6.432,10.564h3.365v.003c.194,0,.39.051.567.16.514.313.676.984.363,1.498l-4.48,7.358h18.081l-4.44-7.292c-.127-.179-.202-.397-.202-.633,0-.603.489-1.092,1.092-1.092h3.365l-4.387-7.206h0Zm15.524-41.471l-1.419-2.025c-.161-.19-.258-.436-.258-.705,0-.603.489-1.092,1.092-1.092h.537l-2.958-4.223-2.958,4.223h.537v.005c.215,0,.433.063.623.196.492.344.613,1.022.269,1.515l-4.172,5.956h1.737v.005c.215,0,.433.063.623.196.492.344.613,1.022.269,1.515l-2.763,3.944h11.671l-2.705-3.862c-.161-.19-.258-.436-.258-.705,0-.603.489-1.092,1.092-1.092h1.737l-2.696-3.848h0Zm-3.411,16.576c.311-.138.627-.273.947-.405l-.053-4.479h-.951l.058,4.884h0Zm-7.417,43.303h1.818v-.003c.194,0,.39-.051.567-.16.514-.313.676-.984.363-1.498l-4.48-7.358h3.365v-.003c.194,0,.39-.051.567-.16.514-.313.676-.984.363-1.498l-6.432-10.564h1.702v-.003c.194,0,.39-.051.567-.16.514-.313.676-.984.363-1.498l-2.605-4.278c.236-5.076,3.653-9.402,9.017-12.534,5.882-3.435,14.062-5.423,23.004-5.423,8.391,0,16.008,2.076,21.676,5.472,5.584,3.345,9.251,7.955,9.824,13.075h.003c.034.311.202.604.484.789,2.812,1.85,5.069,4.038,6.6,6.455,1.445,2.281,2.241,4.771,2.241,7.375,0,5.42-3.464,10.363-9.065,13.973-5.744,3.703-13.703,5.993-22.513,5.993-.448,0-.542.001-.59,0-.171-.002-.354-.005-.548-.01-.091-.005-.185.001-.278.02-1.54.315-3.134.558-4.77.72-1.58.157-3.221.239-4.915.239-5.936,0-11.486-1.041-16.235-2.853-4.041-1.543-7.492-3.636-10.094-6.114h0Zm27.647-8.353c.827-.721,1.642-1.081,2.443-1.081.818,0,1.684.369,2.596,1.107,1.313,1.062,2.634,1.593,3.961,1.593,1.345,0,2.637-.54,3.876-1.619.827-.721,1.642-1.081,2.443-1.081.818,0,1.684.369,2.596,1.107,1.313,1.062,2.634,1.593,3.961,1.593,1.345,0,2.637-.54,3.876-1.619,1.607-1.4,3.287-1.391,5.039.026,1.313,1.062,2.634,1.593,3.961,1.593,1.345,0,2.637-.54,3.876-1.619.455-.396.502-1.085.107-1.54-.396-.455-1.085-.502-1.54-.107-.828.721-1.642,1.081-2.443,1.081-.818,0-1.684-.369-2.596-1.107-2.699-2.183-5.312-2.175-7.838.026-.828.721-1.642,1.081-2.443,1.081-.818,0-1.684-.369-2.596-1.107-1.313-1.062-2.634-1.593-3.961-1.593-1.345,0-2.637.54-3.876,1.619-.828.721-1.642,1.081-2.443,1.081-.818,0-1.684-.369-2.596-1.107-1.313-1.062-2.634-1.593-3.961-1.593-1.345,0-2.637.54-3.876,1.619-.827.721-1.642,1.081-2.443,1.081-.818,0-1.684-.369-2.596-1.107-1.313-1.062-2.634-1.593-3.961-1.593-1.345,0-2.637.54-3.876,1.619-.455.396-.502,1.085-.107,1.54.396.455,1.085.502,1.54.107.827-.721,1.642-1.081,2.443-1.081.818,0,1.684.369,2.596,1.107,1.313,1.062,2.634,1.593,3.961,1.593,1.345,0,2.637-.54,3.876-1.619h0Zm-7.221-8.104c.827-.721,1.642-1.081,2.443-1.081.818,0,1.684.369,2.596,1.107,1.313,1.062,2.634,1.593,3.961,1.593,1.345,0,2.637-.54,3.876-1.619.827-.721,1.642-1.081,2.443-1.081.818,0,1.684.369,2.596,1.107,1.313,1.062,2.634,1.593,3.961,1.593,1.345,0,2.637-.54,3.876-1.619.827-.721,1.642-1.081,2.443-1.081.818,0,1.684.369,2.596,1.107,1.313,1.062,2.634,1.593,3.961,1.593,1.345,0,2.637-.54,3.876-1.619.455-.396.502-1.085.107-1.54-.396-.455-1.085-.502-1.54-.107-.828.721-1.642,1.081-2.443,1.081-.818,0-1.684-.369-2.596-1.107-1.313-1.062-2.634-1.593-3.961-1.593-1.345,0-2.637.54-3.876,1.619-.828.721-1.642,1.081-2.443,1.081-.818,0-1.684-.369-2.596-1.107-1.313-1.062-2.634-1.593-3.961-1.593-1.345,0-2.637.54-3.876,1.619-.828.721-1.642,1.081-2.443,1.081-.818,0-1.684-.369-2.596-1.107-1.313-1.062-2.634-1.593-3.961-1.593-1.345,0-2.637.54-3.876,1.619-.828.721-1.642,1.081-2.443,1.081-.818,0-1.684-.369-2.596-1.107-2.699-2.183-5.312-2.175-7.838.026-.455.396-.502,1.085-.107,1.54.396.455,1.085.502,1.54.107,1.607-1.4,3.287-1.391,5.039.026,1.313,1.062,2.634,1.593,3.961,1.593,1.345,0,2.637-.54,3.876-1.619h0Zm-25.45,25.845c-.612-.612-1.458-.991-2.393-.991-.593,0-1.146.148-1.623.409-.497.272-.92.668-1.228,1.147h0c-.283.442-.854.626-1.352.41-.097-.043-.199-.076-.304-.098-.095-.02-.202-.03-.321-.03-.427,0-.814.173-1.093.453s-.453.666-.453,1.093c0,.055,0,.07,0,.079l.005.073c.065.586-.349,1.121-.937,1.2-.525.072-.995.332-1.341.711-.075.082-.144.17-.206.262h14.439c-.044-.065-.091-.127-.141-.187-.301-.36-.709-.625-1.17-.74-.543-.095-.938-.588-.898-1.151l.009-.122c0-.023-.001-.016-.001-.123,0-.934-.379-1.781-.991-2.393h0Zm-5.134-2.45c.026-.015.052-.029.078-.043.63-.344,1.33-.571,2.071-.65l-.064-6.244h-2.156l.071,6.938h0Zm78.562-54.45c-.612-.612-1.458-.991-2.393-.991-.593,0-1.146.148-1.623.409-.486.266-.902.651-1.208,1.116-.278.467-.867.665-1.377.44-.1-.044-.2-.077-.3-.098-.095-.02-.202-.03-.321-.03-.427,0-.814.173-1.093.453s-.453.666-.453,1.093c0,.055,0,.07,0,.079v.002c.001.027.004.054.006.08.06.583-.354,1.112-.939,1.19-.525.072-.995.332-1.341.711-.075.082-.144.17-.206.262h14.439c-.044-.065-.091-.127-.141-.187-.301-.36-.709-.625-1.17-.74-.543-.095-.937-.588-.898-1.151l.009-.122c0-.023-.001-.016-.001-.123,0-.934-.379-1.781-.991-2.393h0Zm-5.172-2.428c.038-.022.077-.044.115-.065.265-.145.543-.269.831-.37l-.068-5.783h-.951l.073,6.218Z"/><text x="0" y="115" fill="#000000" font-size="5px" font-weight="bold" font-family="'Helvetica Neue', Helvetica, Arial-Unicode, Arial, Sans-serif">Created by Tresna indri lestari</text><text x="0" y="120" fill="#000000" font-size="5px" font-weight="bold" font-family="'Helvetica Neue', Helvetica, Arial-Unicode, Arial, Sans-serif">from the Noun Project</text></svg>