<svg xmlns="http://www.w3.org/2000/svg" xmlns:xlink="http://www.w3.org/1999/xlink" version="1.1" x="0px" y="0px" viewBox="0 0 100 125" style="enable-background:new 0 0 100 100;" xml:space="preserve"><g><path d="M36.343,58.083c-0.102,0.498-0.191,1.002-0.281,1.507c-0.335,1.872-0.65,3.641-1.529,5.002   c-0.967,1.499-2.642,2.544-4.414,3.65c-1.474,0.92-2.997,1.871-4.307,3.182c-2.43,2.43-3.796,5.931-3.654,9.364   c0.199,4.838,3.282,9.5,7.67,11.601c1.821,0.872,4.068,1.352,6.327,1.352c3.548,0,6.759-1.177,8.81-3.229   c0.354-0.353,0.677-0.719,0.998-1.083c1.132-1.285,1.884-2.14,4.1-2.33c1.729,0.049,2.703,1,4.136,2.535   c0.28,0.3,0.558,0.597,0.839,0.877c2.051,2.052,5.262,3.229,8.81,3.229c2.259,0,4.506-0.48,6.327-1.353   c4.388-2.1,7.471-6.762,7.67-11.601c0.142-3.433-1.225-6.933-3.653-9.363c-1.311-1.312-2.834-2.262-4.308-3.182   c-1.772-1.106-3.447-2.151-4.414-3.649c-0.879-1.362-1.194-3.131-1.529-5.003c-0.09-0.505-0.18-1.009-0.281-1.507   C62.534,52.538,57.875,46.941,50,46.941S37.466,52.538,36.343,58.083z M40.263,58.877c0.801-3.95,4.121-7.936,9.737-7.936   s8.937,3.986,9.737,7.936c0.095,0.468,0.179,0.942,0.264,1.417c0.39,2.178,0.792,4.431,2.105,6.468   c1.452,2.25,3.59,3.584,5.657,4.875c1.342,0.837,2.609,1.628,3.597,2.616c1.652,1.653,2.582,4.035,2.486,6.371   c-0.139,3.347-2.359,6.702-5.4,8.157c-1.294,0.619-2.928,0.96-4.601,0.96c-2.494,0-4.674-0.75-5.981-2.057   c-0.249-0.25-0.494-0.513-0.743-0.779c-1.483-1.589-3.517-3.766-7.099-3.807c-0.008,0-0.015,0-0.022,0   c-0.051,0-0.102,0.002-0.152,0.006c-3.907,0.298-5.56,2.174-6.888,3.681c-0.266,0.302-0.532,0.606-0.824,0.899   c-1.307,1.308-3.487,2.057-5.981,2.057c-1.673,0-3.307-0.341-4.601-0.96c-3.041-1.456-5.262-4.81-5.4-8.157   c-0.096-2.336,0.834-4.718,2.487-6.372c0.986-0.987,2.254-1.778,3.596-2.616c2.067-1.29,4.205-2.624,5.657-4.875   c1.313-2.037,1.716-4.289,2.105-6.467C40.084,59.819,40.168,59.346,40.263,58.877z"/><path d="M36.67,47.099c1.282,0,2.581-0.23,3.858-0.684c4.743-1.685,6.656-5.958,7.129-7.228c1.615-4.337,0.194-8.289-0.655-10.649   c-2.831-7.873-8.262-12.826-12.844-14.599l-0.741-5.929c-0.137-1.096-1.145-1.881-2.232-1.736   c-1.096,0.137-1.873,1.136-1.736,2.232l0.776,6.215c-1.692,1.833-5.508,6.743-6.233,14.395c-0.265,2.801-0.885,9.36,3.938,14.009   C30.334,45.651,33.52,47.099,36.67,47.099z M27.974,29.49c0.522-5.518,3.052-9.666,4.911-11.765   c3.548,1.436,7.994,5.606,10.354,12.167c0.971,2.7,1.691,5.157,0.671,7.899c-0.229,0.612-1.527,3.722-4.719,4.855   c-0.847,0.301-1.695,0.453-2.521,0.453c-2.927,0-5.062-1.911-5.844-2.732c-0.021-0.021-0.104-0.106-0.124-0.126   C27.271,36.934,27.745,31.908,27.974,29.49z"/><path d="M19.445,68.18c2.279,0,4.427-0.685,6.384-2.035c4.146-2.86,4.881-7.484,5.007-8.832c0.434-4.607-1.966-8.054-3.399-10.113   c-4.145-5.957-10.415-10.109-16.092-10.747l-1.636-4.997c-0.343-1.049-1.475-1.621-2.522-1.278   c-1.05,0.344-1.622,1.474-1.278,2.523l1.78,5.437c-1.14,2.146-3.626,7.92-2.322,15.593c0.43,2.536,1.573,9.271,7.443,12.51   C14.863,67.491,17.22,68.18,19.445,68.18z M9.31,53.062c-0.929-5.467,0.436-10.128,1.686-12.637   c3.792,0.466,9.182,3.345,13.158,9.06c1.64,2.355,2.975,4.541,2.7,7.454c-0.061,0.65-0.506,3.988-3.296,5.914   c-1.276,0.88-2.66,1.327-4.112,1.327c-1.502,0-3.12-0.481-4.557-1.355c-0.024-0.015-0.127-0.076-0.152-0.09   C10.561,60.431,9.716,55.454,9.31,53.062z"/><path d="M59.472,46.416c1.277,0.454,2.575,0.684,3.858,0.684c0,0,0,0,0.001,0c3.149,0,6.336-1.448,8.742-3.978   c4.82-4.645,4.2-11.204,3.936-14.009c-0.725-7.648-4.542-12.559-6.233-14.391l0.776-6.215c0.137-1.096-0.641-2.096-1.736-2.232   c-1.093-0.145-2.096,0.64-2.232,1.736l-0.741,5.929c-4.582,1.773-10.013,6.726-12.844,14.599c-0.85,2.36-2.271,6.312-0.655,10.649   C52.815,40.458,54.729,44.731,59.472,46.416z M56.762,29.892c2.359-6.561,6.806-10.731,10.354-12.167   c1.859,2.099,4.389,6.247,4.911,11.768c0.229,2.416,0.703,7.441-2.73,10.75c-0.02,0.019-0.103,0.104-0.122,0.125   c-0.782,0.821-2.917,2.732-5.844,2.732c-0.825,0-1.674-0.152-2.521-0.453c-3.191-1.133-4.49-4.243-4.719-4.855   C55.07,35.049,55.791,32.592,56.762,29.892z"/><path d="M94.092,32.701c0.344-1.05-0.229-2.18-1.278-2.523c-1.047-0.341-2.18,0.229-2.522,1.278l-1.633,4.987   c-5.627,0.612-11.932,4.775-16.095,10.757c-1.434,2.059-3.833,5.506-3.399,10.112c0.126,1.349,0.86,5.972,5.007,8.833   c1.957,1.35,4.104,2.035,6.383,2.035c0.001,0,0.001,0,0.001,0c2.226,0,4.583-0.688,6.641-1.942   c5.865-3.235,7.009-9.971,7.438-12.506c1.304-7.673-1.182-13.448-2.322-15.593L94.092,32.701z M90.69,53.062   c-0.406,2.392-1.251,7.369-5.427,9.673c-0.025,0.014-0.128,0.075-0.152,0.089c-1.437,0.874-3.054,1.355-4.557,1.355   c-1.452,0-2.836-0.447-4.112-1.327c-2.79-1.925-3.235-5.264-3.296-5.915c-0.274-2.912,1.061-5.098,2.7-7.453   c3.963-5.695,9.328-8.574,13.16-9.055C90.257,42.939,91.618,47.599,90.69,53.062z"/></g><text x="0" y="115" fill="#000000" font-size="5px" font-weight="bold" font-family="'Helvetica Neue', Helvetica, Arial-Unicode, Arial, Sans-serif">Created by Maxim Kulikov</text><text x="0" y="120" fill="#000000" font-size="5px" font-weight="bold" font-family="'Helvetica Neue', Helvetica, Arial-Unicode, Arial, Sans-serif">from the Noun Project</text></svg>