<svg xmlns="http://www.w3.org/2000/svg" xmlns:xlink="http://www.w3.org/1999/xlink" xml:space="preserve" version="1.1" style="shape-rendering:geometricPrecision;text-rendering:geometricPrecision;image-rendering:optimizeQuality;" viewBox="0 0 318 228.75" x="0px" y="0px" fill-rule="evenodd" clip-rule="evenodd"><defs><style type="text/css">
   
    .fil0 {fill:black}
   
  </style></defs><g><path class="fil0" d="M38 0l3 14c-1,-1 -3,-2 -4,-3 2,3 4,5 6,7l5 18c-3,-1 -6,-2 -8,-4 3,5 6,8 9,11l5 16c-4,-2 -8,-4 -12,-6 5,6 10,11 14,14l4 14c-5,-2 -10,-4 -15,-7 6,8 12,13 17,16l4 13c-6,-2 -12,-5 -18,-8 7,10 14,15 21,17l3 13c-7,-2 -14,-5 -21,-9 9,11 17,16 24,18l1 7 -14 0c-2,-1 -5,-3 -8,-4 1,1 2,3 3,4l-14 0 3 42 -8 0 -8 0 4 -42 -27 0c4,-3 9,-7 13,-13 -7,4 -14,7 -20,9l3 -13c7,-2 13,-7 21,-16 -6,3 -12,5 -18,7l3 -13c6,-2 12,-7 19,-15 -6,2 -11,5 -16,7l4 -14c5,-3 10,-7 16,-14 -5,2 -10,4 -14,6l4 -14c4,-3 9,-7 14,-13 -4,2 -8,4 -12,5l4 -15c4,-2 8,-6 12,-11 -4,2 -7,3 -10,4l8 -28z"/><path class="fil0" d="M118 0l4 14c-1,-1 -3,-2 -5,-3 2,3 4,5 6,7l5 18c-2,-1 -5,-2 -8,-4 4,5 7,8 10,11l4 16c-3,-2 -7,-4 -11,-6 5,6 9,11 14,14l4 14c-5,-2 -10,-4 -15,-7 6,8 12,13 17,16l4 13c-6,-2 -12,-5 -18,-8 7,10 14,15 20,17l4 13c-7,-2 -14,-5 -21,-9 8,11 16,16 23,18l2 7 -14 0c-3,-1 -6,-3 -8,-4 1,1 2,3 3,4l-15 0 4 42 -8 0 -8 0 3 -42 -26 0c4,-3 8,-7 13,-13 -7,4 -14,7 -20,9l3 -13c6,-2 13,-7 21,-16 -7,3 -13,5 -18,7l3 -13c6,-2 12,-7 19,-15 -6,2 -11,5 -16,7l3 -14c5,-3 11,-7 16,-14 -4,2 -9,4 -14,6l4 -14c5,-3 9,-7 14,-13 -4,2 -8,4 -12,5l5 -15c3,-2 7,-6 11,-11 -3,2 -6,3 -10,4l8 -28z"/><path class="fil0" d="M199 0l4 14c-2,-1 -3,-2 -5,-3 2,3 4,5 6,7l5 18c-3,-1 -5,-2 -8,-4 3,5 7,8 10,11l4 16c-4,-2 -7,-4 -11,-6 4,6 9,11 13,14l4 14c-4,-2 -9,-4 -14,-7 6,8 11,13 17,16l3 13c-5,-2 -11,-5 -18,-8 8,10 15,15 21,17l3 13c-6,-2 -13,-5 -21,-9 9,11 17,16 24,18l2 7 -14 0c-3,-1 -6,-3 -9,-4 1,1 2,3 4,4l-15 0 4 42 -8 0 -8 0 3 -42 -27 0c5,-3 9,-7 13,-13 -7,4 -13,7 -20,9l4 -13c6,-2 13,-7 20,-16 -6,3 -12,5 -18,7l4 -13c5,-2 12,-7 18,-15 -5,2 -11,5 -16,7l4 -14c5,-3 10,-7 16,-14 -5,2 -9,4 -14,6l4 -14c4,-3 9,-7 14,-13 -4,2 -8,4 -12,5l4 -15c4,-2 8,-6 12,-11 -3,2 -7,3 -10,4l8 -28z"/><path class="fil0" d="M280 0l3 14c-1,-1 -3,-2 -4,-3 2,3 4,5 6,7l5 18c-3,-1 -6,-2 -8,-4 3,5 6,8 9,11l5 16c-4,-2 -8,-4 -12,-6 5,6 10,11 14,14l4 14c-5,-2 -10,-4 -15,-7 6,8 12,13 17,16l4 13c-6,-2 -12,-5 -18,-8 7,10 14,15 20,17l4 13c-7,-2 -14,-5 -21,-9 9,11 17,16 24,18l1 7 -14 0c-2,-1 -5,-3 -8,-4 1,1 2,3 3,4l-14 0 3 42 -8 0 -8 0 4 -42 -27 0c4,-3 9,-7 13,-13 -7,4 -14,7 -20,9l3 -13c7,-2 13,-7 21,-16 -6,3 -12,5 -18,7l3 -13c6,-2 12,-7 19,-15 -6,2 -11,5 -16,7l4 -14c5,-3 10,-7 16,-14 -5,2 -10,4 -14,6l4 -14c4,-3 9,-7 14,-13 -4,2 -8,4 -12,5l4 -15c4,-2 8,-6 12,-11 -4,2 -7,3 -10,4l8 -28z"/><path class="fil0" d="M239 134l13 -45c-2,-2 -4,-4 -5,-6 2,1 4,2 6,3l2 -12c-3,-3 -7,-7 -11,-12 4,2 8,4 11,5l-4 -16c-3,-2 -7,-6 -10,-10 3,1 5,3 8,4l-5 -18c-2,-2 -4,-4 -6,-7 2,1 3,2 5,2l-4 -13 -8 28c3,-1 7,-3 10,-5 -4,5 -8,9 -12,12l-4 15c4,-2 8,-4 12,-6 -5,6 -10,11 -14,14l-1 2 2 10c3,-2 6,-3 9,-5 -2,4 -5,6 -8,9l14 51z"/><path class="fil0" d="M159 134l12 -45c-2,-2 -3,-4 -5,-6 2,1 4,2 6,3l3 -12c-4,-3 -8,-7 -12,-12 4,2 8,4 11,5l-4 -16c-3,-2 -6,-6 -10,-10 3,1 6,3 8,4l-5 -18c-2,-2 -4,-4 -6,-7 2,1 4,2 5,2l-4 -13 -8 28c4,-1 7,-3 10,-5 -4,5 -8,9 -11,12l-5 15c4,-2 8,-4 12,-6 -5,6 -9,11 -14,14l0 2 2 10c2,-2 5,-3 8,-5 -2,4 -5,6 -7,9l14 51z"/><path class="fil0" d="M78 134l12 -45c-1,-2 -3,-4 -5,-6 2,1 4,2 6,3l3 -12c-4,-3 -8,-7 -12,-12 4,2 8,4 12,5l-5 -16c-3,-2 -6,-6 -10,-10 3,1 6,3 9,4l-5 -18c-2,-2 -4,-4 -6,-7 1,1 3,2 4,2l-3 -13 -8 28c3,-1 6,-3 9,-5 -4,5 -8,9 -11,12l-4 15c4,-2 7,-4 12,-6 -5,6 -10,11 -14,14l-1 2 2 10c3,-2 6,-3 9,-5 -3,4 -6,6 -8,9l14 51z"/></g><text x="0" y="198" fill="#000000" font-size="5px" font-weight="bold" font-family="'Helvetica Neue', Helvetica, Arial-Unicode, Arial, Sans-serif">Created by ani rofiqah</text><text x="0" y="203" fill="#000000" font-size="5px" font-weight="bold" font-family="'Helvetica Neue', Helvetica, Arial-Unicode, Arial, Sans-serif">from the Noun Project</text></svg>