<svg xmlns="http://www.w3.org/2000/svg" viewBox="0 0 96 120" x="0px" y="0px"><title>Artboard 28</title><g><path d="M8,24c5.2109,0,7.5273-1.543,9.2188-2.6719C18.4609,20.5,19.2109,20,22,20a6.591,6.591,0,0,1,2.6563,1.0352A22.1536,22.1536,0,0,0,36,24c2.9453,0,5.52-1.2852,7.7891-2.4219C45.34,20.8008,46.9453,20,48,20s2.66.8008,4.2109,1.5781C54.4805,22.7148,57.0547,24,60,24a22.1543,22.1543,0,0,0,11.3438-2.9648A6.59,6.59,0,0,1,74,20c2.7891,0,3.5391.5,4.7813,1.3281C80.4727,22.457,82.7891,24,88,24a4,4,0,0,0,0-8c-2.7891,0-3.5391-.5-4.7812-1.3281C81.5273,13.543,79.2109,12,74,12a13.1959,13.1959,0,0,0-6.3633,1.9453A14.3655,14.3655,0,0,1,60,16c-1.0547,0-2.66-.8008-4.2109-1.5781C53.52,13.2852,50.9453,12,48,12s-5.52,1.2852-7.7891,2.4219C38.66,15.1992,37.0547,16,36,16a14.3655,14.3655,0,0,1-7.6367-2.0547A13.1959,13.1959,0,0,0,22,12c-5.2109,0-7.5273,1.543-9.2187,2.6719C11.5391,15.5,10.7891,16,8,16a4,4,0,0,0,0,8Z"/><path d="M88,36c-2.7891,0-3.5391-.5-4.7812-1.3281C81.5273,33.543,79.2109,32,74,32a13.1959,13.1959,0,0,0-6.3633,1.9453A14.3655,14.3655,0,0,1,60,36c-1.0547,0-2.66-.8008-4.2109-1.5781C53.52,33.2852,50.9453,32,48,32s-5.52,1.2852-7.7891,2.4219C38.66,35.1992,37.0547,36,36,36a14.3655,14.3655,0,0,1-7.6367-2.0547A13.1959,13.1959,0,0,0,22,32c-5.2109,0-7.5273,1.543-9.2187,2.6719C11.5391,35.5,10.7891,36,8,36a4,4,0,0,0,0,8c5.2109,0,7.5273-1.543,9.2188-2.6719C18.4609,40.5,19.2109,40,22,40a6.591,6.591,0,0,1,2.6563,1.0352A22.1536,22.1536,0,0,0,36,44c2.9453,0,5.52-1.2852,7.7891-2.4219C45.34,40.8008,46.9453,40,48,40s2.66.8008,4.2109,1.5781C54.4805,42.7148,57.0547,44,60,44a22.1543,22.1543,0,0,0,11.3438-2.9648A6.59,6.59,0,0,1,74,40c2.7891,0,3.5391.5,4.7813,1.3281C80.4727,42.457,82.7891,44,88,44a4,4,0,0,0,0-8Z"/><path d="M88,56c-2.7891,0-3.5391-.5-4.7812-1.3281C81.5273,53.543,79.2109,52,74,52a13.1959,13.1959,0,0,0-6.3633,1.9453A14.3655,14.3655,0,0,1,60,56c-1.0547,0-2.66-.8008-4.2109-1.5781C53.52,53.2852,50.9453,52,48,52s-5.52,1.2852-7.7891,2.4219C38.66,55.1992,37.0547,56,36,56a14.3655,14.3655,0,0,1-7.6367-2.0547A13.1959,13.1959,0,0,0,22,52c-5.2109,0-7.5273,1.543-9.2187,2.6719C11.5391,55.5,10.7891,56,8,56a4,4,0,0,0,0,8c5.2109,0,7.5273-1.543,9.2188-2.6719C18.4609,60.5,19.2109,60,22,60a6.591,6.591,0,0,1,2.6563,1.0352A22.1536,22.1536,0,0,0,36,64c2.9453,0,5.52-1.2852,7.7891-2.4219C45.34,60.8008,46.9453,60,48,60s2.66.8008,4.2109,1.5781C54.4805,62.7148,57.0547,64,60,64a22.1543,22.1543,0,0,0,11.3438-2.9648A6.59,6.59,0,0,1,74,60c2.7891,0,3.5391.5,4.7813,1.3281C80.4727,62.457,82.7891,64,88,64a4,4,0,0,0,0-8Z"/><path d="M88,76c-2.7891,0-3.5391-.5-4.7812-1.3281C81.5273,73.543,79.2109,72,74,72a13.1959,13.1959,0,0,0-6.3633,1.9453A14.3655,14.3655,0,0,1,60,76c-1.0547,0-2.66-.8008-4.2109-1.5781C53.52,73.2852,50.9453,72,48,72s-5.52,1.2852-7.7891,2.4219C38.66,75.1992,37.0547,76,36,76a14.3655,14.3655,0,0,1-7.6367-2.0547A13.1959,13.1959,0,0,0,22,72c-5.2109,0-7.5273,1.543-9.2187,2.6719C11.5391,75.5,10.7891,76,8,76a4,4,0,0,0,0,8c5.2109,0,7.5273-1.543,9.2188-2.6719C18.4609,80.5,19.2109,80,22,80a6.591,6.591,0,0,1,2.6563,1.0352A22.1536,22.1536,0,0,0,36,84c2.9453,0,5.52-1.2852,7.7891-2.4219C45.34,80.8008,46.9453,80,48,80s2.66.8008,4.2109,1.5781C54.4805,82.7148,57.0547,84,60,84a22.1543,22.1543,0,0,0,11.3438-2.9648A6.59,6.59,0,0,1,74,80c2.7891,0,3.5391.5,4.7813,1.3281C80.4727,82.457,82.7891,84,88,84a4,4,0,0,0,0-8Z"/></g><text x="0" y="111" fill="#000000" font-size="5px" font-weight="bold" font-family="'Helvetica Neue', Helvetica, Arial-Unicode, Arial, Sans-serif">Created by Deemak Daksina</text><text x="0" y="116" fill="#000000" font-size="5px" font-weight="bold" font-family="'Helvetica Neue', Helvetica, Arial-Unicode, Arial, Sans-serif">from the Noun Project</text></svg>