<svg xmlns="http://www.w3.org/2000/svg" xmlns:xlink="http://www.w3.org/1999/xlink" xml:space="preserve" version="1.1" style="shape-rendering:geometricPrecision;text-rendering:geometricPrecision;image-rendering:optimizeQuality;" viewBox="0 0 334 272.5" x="0px" y="0px" fill-rule="evenodd" clip-rule="evenodd"><defs><style type="text/css">
   
    .fil0 {fill:black}
    .fil1 {fill:black;fill-rule:nonzero}
   
  </style></defs><g><polygon class="fil0" points="151,186 151,218 141,218 141,186 144,189 146,186 147,188 "/><path class="fil0" d="M192 135l-1 34 -29 -15 -8 18 -4 0 -1 -2 -2 1 -3 -3 9 -18 -29 -14 27 -22 -9 -4 26 -22 -9 -4 26 -22 -9 -4 48 -39 -2 61 -9 -4 -1 34 -9 -5 -2 34 -9 -4zm1 -11l1 -33 9 4 1 -34 9 4 1 -26 -21 17 9 4 -26 22 9 4 -26 22 9 4 -27 22 42 20 1 -34 9 4z"/><polygon class="fil0" points="181,183 181,218 170,218 170,183 174,185 176,183 177,184 "/><polygon class="fil0" points="64,183 64,218 54,218 54,183 57,185 59,183 60,184 "/><path class="fil0" d="M237 205l-25 13 -1 -27 -21 1 0 0 4 0 -1 -3 1 -1 -2 -2 2 -3 16 0 -1 -27 26 10 0 -8 26 11 0 -9 26 11 0 -8 47 19 -45 23 -1 -9 -25 13 0 -8 -26 13 0 -9zm7 -4l26 -12 0 8 25 -13 1 8 20 -10 -21 -8 0 8 -26 -10 0 8 -26 -10 0 8 -26 -11 2 39 25 -13 0 8z"/><circle class="fil0" cx="103" cy="161" r="8"/><path class="fil0" d="M61 118l14 31 -33 0 0 69 -10 0 0 -69 -32 0 14 -31 -10 0 14 -31 -10 0 14 -31 -10 0 25 -56 26 56 -10 0 14 31 -10 0 14 31 -10 0zm-5 -10l-14 -31 10 0 -14 -30 10 0 -11 -25 -11 25 10 0 -14 30 10 0 -14 31 10 0 -14 31 46 0 -14 -31 10 0z"/><path class="fil1" d="M98 168l0 1 7 12 12 1c-1,-1 -2,-2 -2,-3l0 0c0,-3 2,-5 5,-5l5 0c1,0 2,0 3,1l43 0c2,0 4,2 4,4l0 0c0,1 -2,3 -4,3l-43 0c-1,1 -2,1 -3,1l-5 0 0 5 -16 -2c-1,0 -2,0 -3,-1l-5 -9 -4 11 16 12 3 2 -2 3 -10 13 -6 -4 8 -10 -3 -3 -1 1 -8 16 -6 -3 7 -15 -8 -9c0,-2 -1,-3 0,-5l5 -17c1,-2 4,-3 6,-3l5 3z"/></g><text x="0" y="233" fill="#000000" font-size="5px" font-weight="bold" font-family="'Helvetica Neue', Helvetica, Arial-Unicode, Arial, Sans-serif">Created by ka reemov</text><text x="0" y="238" fill="#000000" font-size="5px" font-weight="bold" font-family="'Helvetica Neue', Helvetica, Arial-Unicode, Arial, Sans-serif">from the Noun Project</text></svg>