<svg xmlns="http://www.w3.org/2000/svg" xmlns:xlink="http://www.w3.org/1999/xlink" version="1.1" x="0px" y="0px" viewBox="0 0 100 125" style="enable-background:new 0 0 100 100;" xml:space="preserve"><path d="M86.334,48.052c-0.003-0.005-0.004-0.011-0.006-0.016L77.53,32.565c-0.104-0.182-0.261-0.327-0.45-0.414L56.1,22.474  c-0.266-0.122-0.572-0.122-0.838,0l-19.406,8.951v-8.519C35.855,15.79,30.065,10,22.949,10s-12.905,5.79-12.905,12.906v58.433  c0,0.552,0.447,1,1,1h13.857V89c0,0.552,0.447,1,1,1h59.558c0.553,0,1-0.448,1-1V52.54l1.783,3.352  c0.18,0.338,0.525,0.53,0.884,0.53c0.158,0,0.319-0.038,0.469-0.117c0.487-0.259,0.673-0.865,0.413-1.353l-3.666-6.891  C86.34,48.057,86.336,48.056,86.334,48.052z M55.681,24.483l20.27,9.35l8.509,14.962v7.533H26.901v-7.822l8.504-14.671  L55.681,24.483z M25.155,47.531H12.044V33.155h21.444L25.155,47.531z M12.044,49.531H23.98l-3.167,5.384  c-0.279,0.476-0.121,1.089,0.355,1.369c0.159,0.094,0.334,0.138,0.506,0.138c0.343,0,0.677-0.176,0.863-0.493l2.363-4.018v12.776  H12.044V49.531z M22.949,12c6.014,0,10.906,4.893,10.906,10.906v8.249H12.044v-8.249C12.044,16.893,16.936,12,22.949,12z   M12.044,80.339V66.686h12.857v13.653H12.044z M56.681,69.787l3.694,7.373l-3.694,7.142V69.787z M54.681,84.389l-3.813-7.2  l3.813-7.386V84.389z M54.33,88h-9.044l4.465-8.647L54.33,88z M61.483,79.372L65.805,88h-8.784L61.483,79.372z M66.718,85.356  l-4.099-8.181l4.099-7.925V85.356z M61.511,74.962l-4.146-8.276h8.426L61.511,74.962z M49.727,75.036l-4.422-8.35h8.734  L49.727,75.036z M48.61,77.2l-3.967,7.682V69.711L48.61,77.2z M68.718,88V65.686c0-0.552-0.447-1-1-1H43.644  c-0.014,0-0.026,0.008-0.041,0.008c-0.068,0.003-0.132,0.023-0.199,0.04c-0.064,0.016-0.129,0.028-0.187,0.056  c-0.013,0.006-0.028,0.005-0.04,0.012c-0.042,0.022-0.068,0.059-0.105,0.086c-0.058,0.042-0.116,0.081-0.164,0.134  c-0.043,0.048-0.072,0.101-0.105,0.156c-0.033,0.055-0.068,0.107-0.09,0.168c-0.024,0.067-0.032,0.135-0.042,0.206  c-0.006,0.046-0.027,0.086-0.027,0.134V88H26.901V58.328h57.558V88H68.718z"/><path d="M43.644,49.531h24.074c0.553,0,1-0.448,1-1v-8.703c0-0.552-0.447-1-1-1H43.644c-0.553,0-1,0.448-1,1v8.703  C42.644,49.083,43.091,49.531,43.644,49.531z M44.644,40.828h22.074v6.703H44.644V40.828z"/><text x="0" y="115" fill="#000000" font-size="5px" font-weight="bold" font-family="'Helvetica Neue', Helvetica, Arial-Unicode, Arial, Sans-serif">Created by Made</text><text x="0" y="120" fill="#000000" font-size="5px" font-weight="bold" font-family="'Helvetica Neue', Helvetica, Arial-Unicode, Arial, Sans-serif">from the Noun Project</text></svg>