<svg xmlns="http://www.w3.org/2000/svg" viewBox="0 0 64 80" x="0px" y="0px"><path d="M58.505,45.932l-15.436-25.407c-.173-.286-.478-.466-.812-.48-.33-.015-.653,.139-.85,.408l-4.496,6.14-6.031-9.577c-.182-.289-.497-.464-.838-.467-.305,.016-.659,.168-.846,.453l-9.619,14.727-1.328-1.357c-.206-.21-.495-.316-.788-.298-.293,.021-.563,.171-.736,.409l-11.186,15.38c-.221,.304-.253,.707-.083,1.042,.171,.335,.515,.546,.891,.546H57.65c.361,0,.694-.195,.872-.51s.17-.701-.017-1.009Zm-16.368-23.09l1.892,3.114-1.42,.952-2.481-1.322,2.01-2.744Zm-12.118-3.441l2.631,4.178-3.845,3.256-2.581-1.626,3.794-5.808Zm-12.371,13.215l1.359,1.388c.008,.009,.016,.017,.024,.025l.156,.16-1.519,.735-1.387-.43,1.366-1.878Zm-9.335,12.835l6.726-9.248,2.414,.749c.097,.03,.197,.045,.296,.045,.15,0,.299-.034,.436-.1l2.478-1.2,.978,1c.387,.394,1.019,.401,1.415,.015,.395-.387,.401-1.02,.015-1.415l-2.061-2.104,4.12-6.308,3.228,2.034c.164,.103,.349,.154,.533,.154,.231,0,.461-.08,.646-.237l4.188-3.547,2.264,3.594s0,0,0,0l10.433,16.567H8.313Zm40.475,0l-10.73-17.039,.876-1.196,3.264,1.738c.147,.078,.309,.117,.47,.117,.195,0,.389-.057,.557-.169l1.845-1.235,10.804,17.783h-7.084Z"/><text x="0" y="79" fill="#000000" font-size="5px" font-weight="bold" font-family="'Helvetica Neue', Helvetica, Arial-Unicode, Arial, Sans-serif">Created by Ibrahim Nuruz</text><text x="0" y="84" fill="#000000" font-size="5px" font-weight="bold" font-family="'Helvetica Neue', Helvetica, Arial-Unicode, Arial, Sans-serif">from the Noun Project</text></svg>