<svg xmlns="http://www.w3.org/2000/svg" viewBox="0 0 64 80" x="0px" y="0px"><title>Nature-river-weather-water-three</title><path d="M61.293,21.707l1.414-1.414L57,14.586V11.414l3.293,3.293,1.414-1.414-5-5a1,1,0,0,0-1.414,0L53,10.586l-3-3V5.414l3.293,3.293,1.414-1.414-5-5a1,1,0,0,0-1.414,0l-5,5,1.414,1.414L48,5.414V7.586l-4.707,4.707,1.414,1.414L48,10.414V19h2V10.414L51.586,12l-1.293,1.293,1.414,1.414L55,11.414v3.172l-5.707,5.707,1.414,1.414L55,17.414v3.172l-4.707,4.707,1.414,1.414L55,23.414v3.172l-5.707,5.707,1.414,1.414L55,29.414v3.172l-4.707,4.707,1.414,1.414L55,35.414V51h2V35.414l3.293,3.293,1.414-1.414L57,32.586V29.414l4.293,4.293,1.414-1.414L57,26.586V23.414l3.293,3.293,1.414-1.414L57,20.586V17.414Z"/><path d="M14.293,26.707l1.414-1.414L10,19.586V16.414l3.293,3.293,1.414-1.414-5-5a1,1,0,0,0-1.414,0l-5,5,1.414,1.414L8,16.414v3.172L2.293,25.293l1.414,1.414L8,22.414v3.172L3.293,30.293l1.414,1.414L8,28.414V42h2V28.414l3.293,3.293,1.414-1.414L10,25.586V22.414Z"/><path d="M23.293,9.707l1.414-1.414-6-6a1,1,0,0,0-1.414,0l-6,6,1.414,1.414L17,5.414V8.586l-4.707,4.707,1.414,1.414L17,11.414V24h2V11.414l3.293,3.293,1.414-1.414L19,8.586V5.414Z"/><path d="M20.352,36.945a4.141,4.141,0,0,0,.076-5.931,2.143,2.143,0,0,1,0-3.028l8.058-8.058a4.145,4.145,0,0,0,0-5.857l-.557-.557a2.141,2.141,0,0,1,0-3.028l7.779-7.779L34.293,1.293,26.514,9.072a4.14,4.14,0,0,0,0,5.857l.557.557a2.143,2.143,0,0,1,0,3.028l-8.058,8.058a4.145,4.145,0,0,0,0,5.856,2.142,2.142,0,0,1-.039,3.067L1.312,52.275l1.376,1.45Z"/><path d="M43.876,2.482l-1.752-.964-4.4,7.994a4.124,4.124,0,0,0,.618,4.839l4.831,5.116a2.132,2.132,0,0,1-.042,2.985l-3.566,3.565a4.139,4.139,0,0,0,.073,5.927L45.6,37.618a2.132,2.132,0,0,1,.114,2.983l-.52.577a4.164,4.164,0,0,0,.068,5.614L60.273,62.687l1.454-1.374L46.716,45.419a2.152,2.152,0,0,1-.035-2.9l.519-.577a4.121,4.121,0,0,0-.221-5.769L41.021,30.5a2.141,2.141,0,0,1-.038-3.065l3.566-3.565a4.122,4.122,0,0,0,.082-5.772L39.8,12.978a2.136,2.136,0,0,1-.32-2.5Z"/><path d="M31.457,33.958a3.476,3.476,0,0,0,0-4.916,1.474,1.474,0,0,1,0-2.085l3.25-3.25a3.832,3.832,0,0,0,0-5.414l-1.414,1.414a1.83,1.83,0,0,1,0,2.586l-3.25,3.249a3.476,3.476,0,0,0,0,4.916,1.474,1.474,0,0,1,0,2.085l-3.25,3.25,1.414,1.414Z"/><path d="M42.707,55.293l-6.5-6.5a2.54,2.54,0,0,1,0-3.586,4.539,4.539,0,0,0,0-6.414l-1.5-1.5-1.414,1.414,1.5,1.5a2.54,2.54,0,0,1,0,3.586,4.539,4.539,0,0,0,0,6.414l6.5,6.5Z"/><path d="M26.293,44.293l-4,4a3.832,3.832,0,0,0,0,5.414,1.831,1.831,0,0,1,0,2.586l-4,4,1.414,1.414,4-4a3.832,3.832,0,0,0,0-5.414,1.831,1.831,0,0,1,0-2.586l4-4Z"/><text x="0" y="79" fill="#000000" font-size="5px" font-weight="bold" font-family="'Helvetica Neue', Helvetica, Arial-Unicode, Arial, Sans-serif">Created by Turkkub</text><text x="0" y="84" fill="#000000" font-size="5px" font-weight="bold" font-family="'Helvetica Neue', Helvetica, Arial-Unicode, Arial, Sans-serif">from the Noun Project</text></svg>