<svg xmlns="http://www.w3.org/2000/svg" xmlns:xlink="http://www.w3.org/1999/xlink" version="1.1" x="0px" y="0px" viewBox="0 0 100 125" style="enable-background:new 0 0 100 100;" xml:space="preserve"><g><path d="M21.817,45.861c1.104,0,2-0.896,2-2v-8.11c2.491,1.664,5.101,1.886,6.276,1.886c0.358,0,0.584-0.02,0.632-0.024   c1.093-0.106,1.887-1.074,1.788-2.168c-0.098-1.095-1.067-1.891-2.163-1.814c-0.172,0.012-4.251,0.287-6.533-3.654v-4.043   c2.254,1.986,4.329,2.077,4.676,2.077c1.104,0,2.033-0.895,2.033-1.999s-0.863-1.999-1.968-1.999   c-0.112-0.009-2.71-0.26-4.741-5.087v-3.758c0-1.104-0.896-2-2-2s-2,0.896-2,2v3.759c-1.994,4.74-4.534,5.069-4.731,5.086   c-1.078,0.03-1.943,0.913-1.943,1.999c0,1.104,0.896,2,2,2c0.346,0,2.421-0.091,4.675-2.076v4.042   c-2.274,3.925-6.331,3.672-6.531,3.654c-1.093-0.085-2.064,0.703-2.171,1.797c-0.108,1.1,0.696,2.078,1.795,2.186   c0.048,0.005,0.273,0.024,0.632,0.024c1.176,0,3.785-0.222,6.275-1.886v8.11C19.817,44.966,20.713,45.861,21.817,45.861z"/><path d="M92.842,73.584c-0.243,0.019-5.7,0.356-8.696-4.079v-5.099c3.105,2.841,6.137,2.898,6.316,2.898   c1.09,0,1.958-0.872,1.979-1.962c0.021-1.089-0.854-1.995-1.942-2.038c-0.154-0.006-3.703-0.22-6.354-5.61v-3.981   c0-1.104-0.896-2-2-2s-2,0.896-2,2v3.982c-2.625,5.339-6.133,5.6-6.347,5.609c-1.091,0.018-1.969,0.906-1.969,2   c0,1.104,0.896,2,2,2c0.18,0,3.211-0.057,6.315-2.897v5.098c-2.995,4.433-8.452,4.097-8.694,4.079   c-1.127-0.079-2.061,0.729-2.152,1.826c-0.093,1.102,0.725,2.068,1.825,2.161c0.056,0.005,0.314,0.024,0.727,0.024   c1.509,0,5.077-0.271,8.295-2.482v9.271c0,1.104,0.896,2,2,2s2-0.896,2-2v-9.271c3.218,2.212,6.787,2.482,8.296,2.482   c0.412,0,0.671-0.02,0.727-0.024c1.097-0.093,1.908-1.054,1.821-2.151S93.949,73.521,92.842,73.584z"/><path d="M50.225,31.381c-0.409-1.569-0.795-3.052-0.592-4.314c0.236-1.467,1.513-2.883,2.991-4.522   c0.672-0.746,1.366-1.517,2.041-2.374c0.428-0.543,1.638-1.996,2.783-3.373c0.838-1.007,1.643-1.974,2.095-2.528   c0.698-0.855,0.57-2.115-0.286-2.813c-0.854-0.697-2.114-0.57-2.813,0.286c-0.446,0.547-1.241,1.502-2.069,2.496   c-1.175,1.412-2.414,2.902-2.852,3.459c-0.593,0.753-1.242,1.473-1.87,2.169c-1.742,1.934-3.545,3.934-3.969,6.564   c-0.337,2.094,0.198,4.147,0.67,5.959c0.365,1.404,0.711,2.73,0.61,3.835c-0.16,1.761-1.461,3.374-2.967,5.243   c-0.489,0.606-0.987,1.226-1.468,1.872c-0.364,0.49-0.72,0.979-1.068,1.459c-2.122,2.92-3.955,5.442-6.542,6.507   c-1.494,0.614-3.326,0.771-5.265,0.936c-2.296,0.195-4.671,0.397-6.928,1.369c-3.087,1.327-5.192,3.925-7.422,6.675   c-0.629,0.776-1.274,1.573-1.962,2.363c-0.636,0.729-1.443,1.384-2.298,2.077C9.46,66.01,7.82,67.34,7.048,69.367   c-0.79,2.075-0.484,4.224-0.215,6.118c0.154,1.089,0.301,2.116,0.224,2.979c-0.093,1.047-0.498,2.171-0.927,3.362   c-0.595,1.651-1.21,3.358-1.122,5.201c0.052,1.071,0.936,1.905,1.996,1.905c0.032,0,0.064-0.001,0.097-0.002   c1.104-0.053,1.956-0.99,1.903-2.093c-0.05-1.048,0.406-2.314,0.89-3.656c0.496-1.378,1.009-2.803,1.147-4.363   c0.118-1.321-0.068-2.63-0.248-3.896c-0.221-1.554-0.43-3.021-0.007-4.132c0.389-1.022,1.55-1.964,2.778-2.96   c0.949-0.77,1.932-1.565,2.794-2.557c0.72-0.826,1.396-1.659,2.054-2.472c1.993-2.458,3.714-4.581,5.895-5.52   c1.662-0.715,3.617-0.881,5.687-1.058c2.155-0.184,4.384-0.373,6.447-1.222c3.635-1.496,5.88-4.584,8.256-7.854   c0.342-0.47,0.688-0.946,1.044-1.426c0.448-0.603,0.914-1.181,1.371-1.747c1.753-2.175,3.566-4.425,3.837-7.391   C51.111,34.786,50.66,33.055,50.225,31.381z"/><path d="M57.462,27.719c-1.091-0.071-2.058,0.754-2.134,1.856c-0.032,0.469-0.048,0.931-0.048,1.388   c0,2.423,0.413,4.611,0.813,6.728l0.062,0.33c0.182,0.96,1.021,1.63,1.964,1.63c0.122,0,0.247-0.011,0.372-0.034   c1.085-0.205,1.8-1.25,1.596-2.336l-0.063-0.332c-0.382-2.024-0.743-3.938-0.743-5.985c0-0.365,0.012-0.735,0.038-1.11   C59.395,28.751,58.563,27.795,57.462,27.719z"/><path d="M61.927,20.854c0.564,0,1.126-0.238,1.521-0.701c1.06-1.24,2.331-2.401,3.779-3.452c0.895-0.648,1.094-1.899,0.445-2.793   c-0.648-0.895-1.897-1.093-2.793-0.445c-1.704,1.235-3.209,2.612-4.473,4.093c-0.718,0.84-0.618,2.103,0.222,2.819   C61.006,20.696,61.468,20.854,61.927,20.854z"/><path d="M33.066,76.917c-1.1-0.146-2.099,0.631-2.241,1.726c-0.212,1.634-0.319,3.367-0.319,5.152c0,1.039,0.036,2.122,0.106,3.22   c0.068,1.059,0.948,1.871,1.994,1.871c0.043,0,0.087-0.001,0.131-0.004c1.103-0.071,1.938-1.022,1.867-2.125   c-0.065-1.012-0.099-2.009-0.099-2.962c0-1.614,0.097-3.174,0.286-4.637C34.935,78.063,34.161,77.06,33.066,76.917z"/><path d="M41.03,60.304c-2.337,1.788-4.26,3.849-5.878,6.301c-0.608,0.922-0.354,2.162,0.567,2.771   c0.339,0.225,0.722,0.331,1.1,0.331c0.649,0,1.286-0.315,1.671-0.898c1.388-2.102,2.967-3.794,4.97-5.326   c0.878-0.672,1.045-1.927,0.374-2.804C43.161,59.8,41.906,59.634,41.03,60.304z"/><path d="M59.2,50.245c0.474-0.998,0.05-2.19-0.948-2.665c-0.996-0.473-2.189-0.051-2.665,0.948   c-1.044,2.197-2.405,3.855-4.414,5.379c-0.88,0.668-1.052,1.922-0.385,2.802c0.394,0.52,0.991,0.792,1.596,0.792   c0.421,0,0.845-0.133,1.206-0.406C56.102,55.189,57.885,53.014,59.2,50.245z"/><path d="M70.922,53.698c0.188-0.952,0.464-1.915,0.731-2.846c0.675-2.355,1.373-4.791,0.743-7.324   c-0.442-1.776-1.457-3.263-2.438-4.7c-0.887-1.3-1.725-2.527-2.003-3.782c-0.479-2.158,0.01-5.037,1.38-8.106   c0.773-1.737,5.581-9.289,6.56-10.177c0.882-0.665,1.057-1.919,0.391-2.801c-0.664-0.88-1.919-1.057-2.801-0.391   c-1.745,1.317-7.111,10.186-7.803,11.739c-1.215,2.722-2.483,6.771-1.631,10.604c0.445,2.005,1.592,3.686,2.603,5.168   c0.818,1.199,1.592,2.333,1.861,3.412c0.371,1.493-0.129,3.237-0.708,5.256c-0.29,1.011-0.59,2.057-0.81,3.175   c-0.236,1.196-0.333,2.334-0.418,3.339c-0.141,1.656-0.252,2.965-0.866,3.715c-0.445,0.544-1.331,1.027-2.269,1.54   c-1.472,0.805-3.303,1.806-4.499,3.659c-0.955,1.478-1.059,3.206-1.168,5.035c-0.071,1.197-0.145,2.436-0.471,3.62   c-0.973,3.542-3.218,11.936-3.056,13.385c0.114,1.022,0.98,1.777,1.984,1.777c0.075,0,0.15-0.004,0.226-0.013   c1.054-0.118,1.823-1.034,1.775-2.078c0.092-1.224,1.945-8.435,2.928-12.011c0.437-1.589,0.526-3.104,0.606-4.442   c0.077-1.29,0.149-2.508,0.534-3.104c0.646-1.001,1.818-1.642,3.059-2.319c1.231-0.673,2.505-1.369,3.443-2.515   c1.401-1.71,1.583-3.846,1.758-5.912C70.646,55.656,70.729,54.679,70.922,53.698z"/></g><text x="0" y="115" fill="#000000" font-size="5px" font-weight="bold" font-family="'Helvetica Neue', Helvetica, Arial-Unicode, Arial, Sans-serif">Created by Maxim Kulikov</text><text x="0" y="120" fill="#000000" font-size="5px" font-weight="bold" font-family="'Helvetica Neue', Helvetica, Arial-Unicode, Arial, Sans-serif">from the Noun Project</text></svg>