<svg xmlns="http://www.w3.org/2000/svg" xmlns:xlink="http://www.w3.org/1999/xlink" version="1.1" x="0px" y="0px" viewBox="0 0 100 125" style="enable-background:new 0 0 100 100;" xml:space="preserve"><path d="M50,5C29.229,5,12.332,21.898,12.332,42.668c0,4.462,3.63,8.093,8.092,8.093h12.238c-1.592,6.5-3.016,13.352-3.42,20.145  c-0.223,3.757,0.061,8.74,2.17,13.227c0.046,0.131,0.104,0.26,0.179,0.384c0.002,0.003,0.004,0.004,0.006,0.007  c0.562,1.13,1.239,2.226,2.064,3.258c3.523,4.408,9.067,6.971,15.687,7.219l0.283-0.001c6.545-0.246,12.089-2.81,15.611-7.217  c0.819-1.025,1.494-2.114,2.054-3.236c0.001-0.002,0.003-0.004,0.005-0.006c0.075-0.124,0.134-0.252,0.179-0.384  c2.119-4.494,2.404-9.487,2.18-13.25c-0.402-6.785-1.828-13.639-3.42-20.144h13.338c4.462,0,8.092-3.63,8.092-8.093  C87.668,21.898,70.771,5,50,5z M65.666,71.143c0.162,2.738,0.026,6.217-1.072,9.484c-2.225-1.205-4.341-2.137-6.04-2.851  c-0.574-0.24-1.228-0.202-1.767,0.108c-2.442,1.396-4.94,2.563-7.368,3.683l-0.115-0.054c-1.003-0.464-2.19-0.028-2.655,0.974  c-0.465,1.002-0.028,2.191,0.974,2.656l0.956,0.442c0.267,0.124,0.554,0.185,0.841,0.185c0.286,0,0.572-0.062,0.839-0.185  l0.453-0.209c2.345-1.082,4.76-2.197,7.189-3.532c1.525,0.656,3.212,1.434,4.963,2.393c-0.234,0.357-0.479,0.708-0.749,1.047  c-2.784,3.485-7.272,5.515-12.562,5.716l-0.133,0.001c-5.363-0.202-9.852-2.232-12.637-5.717c-0.274-0.343-0.523-0.7-0.759-1.063  c1.472-0.807,3.059-1.575,4.923-2.377c0.607,0.334,1.238,0.668,1.909,1.01c0.985,0.504,2.188,0.112,2.69-0.872  s0.111-2.188-0.872-2.69c-0.939-0.479-1.794-0.94-2.613-1.408c-0.538-0.309-1.19-0.347-1.763-0.109  c-2.306,0.963-4.23,1.87-6.002,2.83c-1.091-3.26-1.227-6.73-1.065-9.462c0.406-6.813,1.91-13.784,3.549-20.381h25.335  C63.757,57.364,65.261,64.337,65.666,71.143z M79.576,46.761H20.424c-2.256,0-4.092-1.836-4.092-4.093C16.332,24.104,31.436,9,50,9  s33.668,15.104,33.668,33.668C83.668,44.925,81.832,46.761,79.576,46.761z"/><path d="M33.166,32.62c-1.069,0.277-1.712,1.368-1.436,2.438c0.076,0.292,0.114,0.595,0.114,0.903c0,1.978-1.609,3.587-3.587,3.587  s-3.587-1.609-3.587-3.587s1.609-3.587,3.587-3.587c0.246,0,0.492,0.025,0.732,0.075c1.079,0.22,2.139-0.474,2.362-1.555  c0.223-1.082-0.474-2.14-1.556-2.363c-0.505-0.104-1.022-0.157-1.539-0.157c-4.184,0-7.587,3.403-7.587,7.587  s3.403,7.587,7.587,7.587s7.587-3.404,7.587-7.587c0-0.646-0.081-1.287-0.241-1.906C35.326,32.985,34.231,32.342,33.166,32.62z"/><path d="M62.507,34.406c0,3.977,3.235,7.212,7.212,7.212c0.565,0,1.13-0.066,1.678-0.196c1.075-0.255,1.739-1.333,1.484-2.408  c-0.256-1.075-1.339-1.741-2.408-1.484c-0.246,0.058-0.5,0.088-0.754,0.088c-1.771,0-3.212-1.441-3.212-3.212  s1.44-3.212,3.212-3.212s3.212,1.441,3.212,3.212c0,0.18-0.015,0.359-0.044,0.534c-0.182,1.09,0.554,2.121,1.644,2.302  c1.09,0.183,2.12-0.554,2.302-1.643c0.065-0.392,0.099-0.793,0.099-1.193c0-3.977-3.235-7.212-7.212-7.212  S62.507,30.429,62.507,34.406z"/><path d="M47.237,12.078c-1.836,0-3.619,0.524-5.156,1.517c-0.928,0.599-1.194,1.837-0.595,2.765  c0.597,0.927,1.833,1.195,2.765,0.595c0.889-0.574,1.922-0.877,2.986-0.877c3.04,0,5.514,2.474,5.514,5.514  s-2.474,5.514-5.514,5.514s-5.514-2.474-5.514-5.514c0-0.327,0.028-0.656,0.086-0.977c0.192-1.087-0.533-2.125-1.621-2.318  c-1.095-0.195-2.125,0.533-2.318,1.621c-0.097,0.55-0.146,1.113-0.146,1.674c0,5.246,4.268,9.514,9.514,9.514  s9.514-4.268,9.514-9.514S52.483,12.078,47.237,12.078z"/><text x="0" y="115" fill="#000000" font-size="5px" font-weight="bold" font-family="'Helvetica Neue', Helvetica, Arial-Unicode, Arial, Sans-serif">Created by Maxim Kulikov</text><text x="0" y="120" fill="#000000" font-size="5px" font-weight="bold" font-family="'Helvetica Neue', Helvetica, Arial-Unicode, Arial, Sans-serif">from the Noun Project</text></svg>