<svg xmlns="http://www.w3.org/2000/svg" xmlns:xlink="http://www.w3.org/1999/xlink" version="1.1" x="0px" y="0px" viewBox="0 0 100 125" style="enable-background:new 0 0 100 100;" xml:space="preserve"><g><path d="M70.675,22.676c-1.945-2.442-4.573-3.789-7.398-3.79c-0.002,0-0.004,0-0.006,0c-2.826,0-5.458,1.345-7.41,3.79   l-9.616,12.077l-6.548-8.225c-1.732-2.175-4.18-3.423-6.716-3.423s-4.984,1.248-6.717,3.423L5.866,52.15   c-0.956,1.2-1.136,2.805-0.47,4.187c0.666,1.383,2.033,2.241,3.568,2.241h52.099c0.007,0,0.013,0,0.02,0   c0.007,0,0.013-0.002,0.019-0.002h29.933c1.534,0,2.901-0.858,3.567-2.24s0.487-2.986-0.468-4.188L70.675,22.676z M21.022,39.536   c0.798,0.514,1.946,1.026,3.609,1.026c1.396,0,2.609-0.356,3.711-1.091c0.919-0.612,1.168-1.854,0.556-2.772   c-0.613-0.92-1.855-1.171-2.773-0.556c-0.311,0.207-0.732,0.419-1.493,0.419c-0.452,0-0.787-0.076-1.081-0.202l5.843-7.34   c0.983-1.235,2.257-1.915,3.587-1.915s2.604,0.68,3.586,1.915l5.366,6.74c-0.603,0.526-1.086,0.802-1.985,0.802   c-1.136,0-1.613-0.441-2.479-1.241c-1.048-0.969-2.483-2.296-5.167-2.302c-0.001,0-0.002,0-0.004,0c-1.103,0-1.998,0.893-2,1.996   c-0.002,1.104,0.891,2.002,1.996,2.004c1.123,0.002,1.597,0.441,2.459,1.238c1.052,0.973,2.492,2.305,5.194,2.305   c2.18,0,3.532-0.867,4.478-1.671l12.488,15.686h-25.48c-0.132,0-0.261,0.014-0.387,0.039L8.996,54.643L21.022,39.536z    M62.026,54.576L48.801,37.964l0.367-0.46c0.128,0.043,0.263,0.073,0.402,0.089c0.301,0.034,0.625,0.048,0.972,0.048   c2.883,0,4.457-1.285,5.605-2.223c0.975-0.796,1.619-1.321,3.076-1.321c0.502,0,0.933,0.063,1.316,0.194   c1.046,0.354,2.182-0.203,2.538-1.249c0.356-1.046-0.203-2.182-1.249-2.538c-0.805-0.274-1.658-0.407-2.605-0.407   c-2.883,0-4.457,1.285-5.605,2.223c-0.298,0.243-0.565,0.457-0.834,0.643l6.204-7.792c1.176-1.474,2.697-2.284,4.283-2.284   c0.001,0,0.002,0,0.003,0c1.583,0.001,3.1,0.812,4.271,2.281l4.868,6.094c-0.545,0.343-1.014,0.713-1.437,1.058   c-0.975,0.796-1.62,1.321-3.08,1.321c-0.512,0-0.95-0.065-1.34-0.2c-1.046-0.363-2.184,0.191-2.544,1.235   c-0.361,1.044,0.192,2.183,1.236,2.544c0.817,0.283,1.684,0.421,2.648,0.421c2.885,0,4.395-1.232,5.608-2.223   c0.501-0.408,0.943-0.753,1.441-0.986l16.09,20.144H62.026z"/><path d="M12.052,66.102H7.524c-1.104,0-2,0.896-2,2s0.896,2,2,2h4.527c1.104,0,2-0.896,2-2S13.156,66.102,12.052,66.102z"/><path d="M32.158,66.102H27.63c-1.104,0-2,0.896-2,2s0.896,2,2,2h4.527c1.104,0,2-0.896,2-2S33.262,66.102,32.158,66.102z"/><path d="M52.264,66.102h-4.527c-1.104,0-2,0.896-2,2s0.896,2,2,2h4.527c1.104,0,2-0.896,2-2S53.368,66.102,52.264,66.102z"/><path d="M72.369,66.102h-4.527c-1.104,0-2,0.896-2,2s0.896,2,2,2h4.527c1.104,0,2-0.896,2-2S73.474,66.102,72.369,66.102z"/><path d="M92.475,66.102h-4.527c-1.104,0-2,0.896-2,2s0.896,2,2,2h4.527c1.104,0,2-0.896,2-2S93.58,66.102,92.475,66.102z"/><path d="M23.205,77.114h-4.527c-1.104,0-2,0.896-2,2s0.896,2,2,2h4.527c1.104,0,2-0.896,2-2S24.31,77.114,23.205,77.114z"/><path d="M43.311,77.114h-4.527c-1.104,0-2,0.896-2,2s0.896,2,2,2h4.527c1.104,0,2-0.896,2-2S44.416,77.114,43.311,77.114z"/><path d="M63.417,77.114h-4.528c-1.104,0-2,0.896-2,2s0.896,2,2,2h4.528c1.104,0,2-0.896,2-2S64.521,77.114,63.417,77.114z"/><path d="M83.522,77.114h-4.527c-1.104,0-2,0.896-2,2s0.896,2,2,2h4.527c1.104,0,2-0.896,2-2S84.627,77.114,83.522,77.114z"/></g><text x="0" y="115" fill="#000000" font-size="5px" font-weight="bold" font-family="'Helvetica Neue', Helvetica, Arial-Unicode, Arial, Sans-serif">Created by Maxim Kulikov</text><text x="0" y="120" fill="#000000" font-size="5px" font-weight="bold" font-family="'Helvetica Neue', Helvetica, Arial-Unicode, Arial, Sans-serif">from the Noun Project</text></svg>