<svg xmlns="http://www.w3.org/2000/svg" xmlns:xlink="http://www.w3.org/1999/xlink" version="1.1" x="0px" y="0px" viewBox="0 0 100 125" enable-background="new 0 0 100 100" xml:space="preserve"><path d="M27.272,91.176l0.316,0.391c-2.824,0-2.824-0.753-5.647-0.753c-2.823,0-2.823,2.008-5.647,2.008  c-2.823,0-2.823-2.008-5.647-2.008c-2.823,0-2.823,0.753-5.647,0.753c1.76-2.037,3.071-4.437,3.737-7.046  c0.449-1.76,0.679-3.576,0.679-5.407v-4.438h13.806v4.435c0,2.033,0.283,4.048,0.836,5.988  C24.692,87.325,25.818,89.378,27.272,91.176z M94.684,91.176c-1.454-1.799-2.579-3.852-3.213-6.076  c-0.553-1.941-0.836-3.956-0.836-5.988v-4.435H76.828v4.438c0,1.831-0.23,3.647-0.679,5.407c-0.666,2.609-1.977,5.008-3.737,7.046  c2.823,0,2.823-0.753,5.647-0.753c2.823,0,2.823,2.008,5.647,2.008c2.823,0,2.823-2.008,5.647-2.008  c2.824,0,2.824,0.753,5.647,0.753L94.684,91.176z M57.765,85.1c-0.553-1.941-0.836-3.956-0.836-5.988v-4.435H43.122v4.438  c0,1.831-0.23,3.647-0.679,5.407c-0.666,2.609-1.977,5.008-3.737,7.046c2.823,0,2.823-0.753,5.647-0.753  c2.823,0,2.823,2.008,5.647,2.008c2.823,0,2.823-2.008,5.647-2.008c2.824,0,2.824,0.753,5.647,0.753l-0.316-0.391  C59.524,89.378,58.399,87.325,57.765,85.1z M44.39,69.068l-0.316-0.391c-1.454-1.799-2.579-3.852-3.213-6.076  c-0.553-1.941-0.836-3.956-0.836-5.988v-4.435H26.218v4.438c0,1.831-0.23,3.647-0.679,5.407c-0.666,2.609-1.977,5.008-3.737,7.046  c2.823,0,2.823-0.753,5.647-0.753c2.823,0,2.823,2.008,5.647,2.008c2.823,0,2.823-2.008,5.647-2.008  C41.566,68.315,41.566,69.068,44.39,69.068z M85.698,48.875L73.36,33.579h8.733L71.141,20.214h6.838L66.956,7.177L55.932,20.214  h6.838L51.819,33.579h8.733L48.214,48.875h15.146v20.177h7.031V48.875H85.698z"/><text x="0" y="115" fill="#000000" font-size="5px" font-weight="bold" font-family="'Helvetica Neue', Helvetica, Arial-Unicode, Arial, Sans-serif">Created by Laymik</text><text x="0" y="120" fill="#000000" font-size="5px" font-weight="bold" font-family="'Helvetica Neue', Helvetica, Arial-Unicode, Arial, Sans-serif">from the Noun Project</text></svg>