<svg xmlns="http://www.w3.org/2000/svg" xmlns:xlink="http://www.w3.org/1999/xlink" version="1.1" x="0px" y="0px" viewBox="0 0 100 125" style="enable-background:new 0 0 100 100;" xml:space="preserve"><g><path d="M93,81.913h-3.788l-36.56-53.951c-0.029-0.043-0.065-0.076-0.097-0.116c-0.047-0.059-0.091-0.119-0.144-0.173   c-0.06-0.061-0.127-0.111-0.194-0.162c-0.034-0.026-0.062-0.057-0.097-0.082c-0.005-0.003-0.01-0.005-0.014-0.008   c-0.078-0.052-0.161-0.092-0.244-0.132c-0.036-0.018-0.071-0.041-0.108-0.056c-0.075-0.031-0.154-0.049-0.232-0.071   c-0.047-0.013-0.093-0.032-0.14-0.041c-0.093-0.018-0.187-0.023-0.281-0.028c-0.033-0.002-0.065-0.009-0.098-0.009   c-0.123,0-0.245,0.012-0.367,0.035c-0.004,0.001-0.009,0-0.013,0.001c-0.088,0.017-0.173,0.047-0.259,0.076   c-0.038,0.013-0.077,0.02-0.114,0.034c-0.058,0.023-0.112,0.058-0.168,0.087c-0.062,0.032-0.126,0.061-0.185,0.1   c-0.006,0.004-0.013,0.006-0.02,0.011c-0.048,0.032-0.086,0.073-0.13,0.109c-0.053,0.043-0.108,0.083-0.158,0.132   c-0.061,0.06-0.111,0.127-0.162,0.194c-0.026,0.034-0.058,0.062-0.082,0.098l-0.022,0.032c-0.001,0.001-0.002,0.003-0.003,0.004   L12.722,81.913H8.934c-1.104,0-2,0.896-2,2c0,0.401,0.121,0.774,0.325,1.087l-1.749,1.957c-0.736,0.824-0.665,2.088,0.158,2.824   C6.049,90.122,6.525,90.29,7,90.29c0.549,0,1.097-0.225,1.492-0.667l3.316-3.71h1.971c0.001,0,0.002,0,0.004,0h0.894   c-0.301,0.758-0.124,1.653,0.519,2.228c0.382,0.341,0.858,0.509,1.333,0.509c0.549,0,1.097-0.225,1.492-0.667l1.85-2.07h2.697   l-0.933,1.043c-0.736,0.824-0.665,2.088,0.158,2.824c0.382,0.341,0.858,0.509,1.333,0.509c0.549,0,1.097-0.225,1.492-0.667   l3.315-3.709h2.697l-0.933,1.043c-0.736,0.824-0.665,2.088,0.158,2.824c0.382,0.341,0.858,0.509,1.333,0.509   c0.549,0,1.097-0.225,1.492-0.667l3.315-3.709h2.697l-0.021,0.023c-0.736,0.823-0.666,2.087,0.158,2.824   c0.381,0.341,0.858,0.509,1.333,0.509c0.549,0,1.096-0.225,1.491-0.667l2.405-2.689h2.697l-0.933,1.044   c-0.736,0.824-0.665,2.088,0.158,2.824c0.382,0.341,0.858,0.509,1.333,0.509c0.549,0,1.097-0.225,1.492-0.667l3.316-3.71h2.718   c-0.623,0.822-0.529,1.994,0.253,2.694c0.382,0.341,0.858,0.509,1.333,0.509c0.549,0,1.097-0.225,1.492-0.667l2.267-2.536h2.318   c0.001,0,0.002,0,0.003,0h0.375l-0.933,1.043c-0.736,0.824-0.665,2.088,0.158,2.824c0.382,0.341,0.858,0.509,1.333,0.509   c0.549,0,1.097-0.225,1.492-0.667l3.315-3.709h2.697l-0.933,1.043c-0.736,0.824-0.665,2.088,0.158,2.824   c0.382,0.341,0.858,0.509,1.333,0.509c0.549,0,1.097-0.225,1.492-0.667l3.316-3.709h2.751c-0.47,0.804-0.325,1.853,0.396,2.498   c0.381,0.341,0.857,0.509,1.332,0.509c0.549,0,1.097-0.225,1.492-0.667l2.091-2.339h2.697l-0.933,1.043   c-0.736,0.824-0.665,2.088,0.158,2.824c0.382,0.341,0.858,0.509,1.333,0.509c0.549,0,1.097-0.225,1.492-0.667l3.316-3.71H93   c1.104,0,2-0.896,2-2S94.104,81.913,93,81.913z M42.325,81.913l8.642-22.902l8.642,22.902H42.325z M50.995,32.648L84.38,81.913   H68.355l1.785-1.382c0.882-0.683,1.439-1.67,1.568-2.778c0.129-1.108-0.187-2.197-0.889-3.064l-1.208-1.492   c-0.695-0.859-1.955-0.99-2.813-0.295c-0.858,0.695-0.991,1.955-0.295,2.813l1.207,1.49c0,0-0.019,0.164-0.019,0.164l-4.274,3.309   L57.215,64.24l6.022,7.437c0.395,0.488,0.973,0.742,1.555,0.742c0.442,0,0.887-0.146,1.257-0.446   c0.859-0.695,0.991-1.954,0.296-2.813L52.521,52.087c-0.017-0.021-0.039-0.037-0.056-0.057c-0.028-0.032-0.056-0.065-0.086-0.095   c-0.028-0.028-0.058-0.054-0.088-0.081c-0.039-0.035-0.078-0.067-0.12-0.099c-0.031-0.024-0.062-0.047-0.095-0.068   c-0.031-0.021-0.063-0.04-0.095-0.059c-0.047-0.028-0.093-0.054-0.141-0.077c-0.038-0.019-0.077-0.035-0.117-0.051   c-0.018-0.007-0.032-0.018-0.05-0.025c-0.016-0.006-0.032-0.007-0.048-0.013c-0.047-0.016-0.093-0.031-0.141-0.044   c-0.045-0.012-0.091-0.021-0.137-0.03c-0.038-0.007-0.075-0.015-0.113-0.02c-0.042-0.006-0.083-0.009-0.125-0.012   c-0.048-0.003-0.096-0.004-0.145-0.004c-0.04,0-0.079-0.001-0.118,0.002c-0.043,0.003-0.085,0.008-0.127,0.013   c-0.046,0.006-0.091,0.014-0.136,0.023c-0.038,0.008-0.077,0.014-0.114,0.024c-0.049,0.013-0.096,0.029-0.143,0.045   c-0.021,0.007-0.042,0.009-0.063,0.017c-0.019,0.007-0.034,0.019-0.053,0.026c-0.035,0.014-0.07,0.028-0.104,0.045   c-0.046,0.022-0.091,0.048-0.135,0.074c-0.038,0.022-0.076,0.044-0.112,0.068c-0.031,0.021-0.061,0.043-0.092,0.066   c-0.018,0.014-0.038,0.022-0.055,0.036c-0.022,0.018-0.037,0.039-0.058,0.057c-0.033,0.029-0.065,0.056-0.096,0.087   c-0.028,0.028-0.054,0.057-0.08,0.087c-0.028,0.032-0.057,0.063-0.083,0.097l-0.003-0.003L39.095,65.342   c-0.679,0.872-0.522,2.128,0.35,2.807c0.365,0.284,0.798,0.422,1.227,0.422c0.596,0,1.186-0.265,1.58-0.771l2.182-2.804   L38.44,80.878l-4.116-2.691c0,0-0.028-0.167-0.028-0.167l4.916-6.316c0.679-0.872,0.522-2.128-0.35-2.807   c-0.872-0.679-2.129-0.521-2.807,0.35l-4.916,6.316c-0.705,0.905-1,2.072-0.812,3.204s0.847,2.141,1.807,2.768l0.58,0.379H17.556   L50.995,32.648z"/><path d="M75.046,13.645c-2.503,0-4.871,0.805-6.846,2.329c-0.051,0.039-0.091,0.087-0.137,0.13   c-0.046,0.042-0.094,0.081-0.135,0.128c-0.049,0.056-0.089,0.116-0.131,0.176c-0.033,0.047-0.07,0.091-0.099,0.141   c-0.038,0.065-0.066,0.134-0.096,0.202c-0.023,0.051-0.049,0.1-0.068,0.154c-0.028,0.081-0.044,0.165-0.062,0.25   c-0.009,0.041-0.024,0.079-0.03,0.121c-0.001,0.004,0,0.009-0.001,0.013c-0.014,0.1-0.014,0.201-0.013,0.302   c0,0.031-0.005,0.063-0.003,0.094c0.008,0.122,0.028,0.243,0.058,0.363c0.034,0.134,0.08,0.263,0.139,0.386   c0.01,0.021,0.026,0.04,0.037,0.06c0.051,0.096,0.106,0.19,0.172,0.276c0.003,0.003,0.004,0.007,0.007,0.011   c0.028,0.036,0.062,0.063,0.092,0.097c0.054,0.061,0.107,0.124,0.169,0.178c0.05,0.044,0.105,0.079,0.158,0.117   c0.052,0.038,0.102,0.078,0.157,0.111c0.062,0.036,0.127,0.062,0.192,0.091c0.054,0.024,0.106,0.052,0.163,0.072   c0.079,0.027,0.16,0.043,0.242,0.06c0.043,0.009,0.084,0.025,0.128,0.032c3.535,0.505,6.201,3.582,6.201,7.158   c0,2.252-1.025,4.336-2.812,5.721c-0.003,0.002-0.005,0.005-0.008,0.007c-0.003,0.002-0.005,0.004-0.007,0.006   c-0.006,0.005-0.01,0.011-0.016,0.015c-0.096,0.076-0.186,0.16-0.267,0.252c-0.032,0.037-0.056,0.077-0.085,0.116   c-0.049,0.065-0.099,0.128-0.14,0.199c-0.032,0.056-0.055,0.115-0.081,0.173c-0.027,0.06-0.058,0.117-0.079,0.179   c-0.029,0.085-0.046,0.172-0.063,0.259c-0.008,0.039-0.022,0.075-0.028,0.114c0,0.003,0,0.006,0,0.009   c-0.018,0.13-0.023,0.262-0.015,0.394c0.002,0.029,0.01,0.056,0.014,0.084c0.011,0.101,0.023,0.203,0.05,0.302   c0.017,0.064,0.045,0.123,0.069,0.185c0.026,0.07,0.05,0.14,0.084,0.207c0.055,0.108,0.118,0.211,0.191,0.307   c0.002,0.003,0.003,0.006,0.005,0.008c0.012,0.016,0.028,0.027,0.041,0.042c0.077,0.094,0.162,0.182,0.255,0.261   c0.04,0.034,0.083,0.062,0.125,0.092c0.073,0.053,0.149,0.102,0.23,0.145c0.05,0.027,0.101,0.05,0.153,0.072   c0.078,0.033,0.158,0.061,0.241,0.084c0.058,0.016,0.114,0.031,0.173,0.042c0.031,0.006,0.059,0.018,0.091,0.022   c0.539,0.075,1.059,0.111,1.587,0.111c6.193,0,11.231-5.038,11.231-11.231C86.277,18.683,81.239,13.645,75.046,13.645z    M78.339,31.311c0.645-1.429,1.001-2.991,1.001-4.616c0-3.652-1.797-6.96-4.585-9.027c0.098-0.004,0.192-0.023,0.291-0.023   c3.987,0,7.231,3.244,7.231,7.23C82.277,27.682,80.68,30.113,78.339,31.311z"/><circle cx="22.619" cy="30.065" r="2.607"/><circle cx="48.266" cy="11.737" r="2.027"/><circle cx="20.017" cy="59.391" r="2.027"/><circle cx="83.92" cy="43.638" r="2.21"/><circle cx="80.01" cy="61.366" r="1.789"/></g><text x="0" y="115" fill="#000000" font-size="5px" font-weight="bold" font-family="'Helvetica Neue', Helvetica, Arial-Unicode, Arial, Sans-serif">Created by Maxim Kulikov</text><text x="0" y="120" fill="#000000" font-size="5px" font-weight="bold" font-family="'Helvetica Neue', Helvetica, Arial-Unicode, Arial, Sans-serif">from the Noun Project</text></svg>