<svg xmlns="http://www.w3.org/2000/svg" xmlns:xlink="http://www.w3.org/1999/xlink" version="1.1" x="0px" y="0px" viewBox="0 0 100 125" style="enable-background:new 0 0 100 100;" xml:space="preserve"><g><path d="M86.104,58.886c0-1.203-1.45-11.729-3.502-18.086c-2.224-6.892-7.506-15.566-7.729-15.932   c-0.43-0.704-1.241-1.073-2.061-0.925c-0.812,0.146-1.45,0.775-1.608,1.585l-0.472,2.415c-0.62,3.179-1.681,6.225-3.161,9.084   c-1.517-5.078-4.149-13.102-6.7-17.103C53.798,8.833,43.192,5.247,42.744,5.1c-0.788-0.258-1.662-0.002-2.185,0.649   c-0.521,0.651-0.585,1.557-0.158,2.274c0.034,0.058,3.445,5.917,2.92,16c-0.247,4.734-2.719,10.558-4.149,13.571   c-1.377-1.052-3.027-2.488-3.819-3.768c-0.677-1.102-1.372-2.617-1.958-4.273c-1.24-3.467-1.908-7.075-1.742-9.417   c0.071-1.006-0.618-1.908-1.608-2.104c-0.994-0.194-1.971,0.378-2.286,1.337c-2.612,7.931-5.792,15.789-6.704,18.008   c-0.035,0.084-0.071,0.172-0.104,0.27c-1.653,3.017-7.054,13.984-7.054,21.24l0.006,0.63c0.002,0.102,0.005,0.203,0.004,0.297   c-0.008,0.497,0.031,0.972,0.07,1.444l0.022,0.339c0.014,0.226,0.027,0.438,0.046,0.584C15.686,80.3,30.233,94.103,48.227,94.958   c0.002,0,0.004,0.001,0.006,0.001c0.435,0.035,0.904,0.042,1.417,0.033C49.767,94.993,49.883,95,50,95   c0.092,0,0.182-0.006,0.273-0.007C50.406,94.996,50.543,95,50.668,95c0.393,0,0.751-0.014,1.099-0.042   c0.01-0.001,0.021-0.003,0.031-0.004C70.873,94.014,86.104,78.196,86.104,58.886z M63.226,88.136   c1.464-2.044,2.443-4.432,2.585-7.033c0.193-3.531-1.315-7.179-4.479-10.842c-0.163-0.189-0.329-0.377-0.496-0.563   c-0.739-0.821-2.003-0.888-2.825-0.149c-0.821,0.738-0.888,2.003-0.149,2.824c0.147,0.164,0.294,0.329,0.44,0.5   c2.468,2.855,3.65,5.551,3.516,8.011c-0.286,5.208-5.752,9.671-10.298,10.078c-0.398,0.019-0.799,0.027-1.201,0.031   c-0.084-0.002-0.155,0-0.244-0.004c-0.049-0.002-0.1-0.002-0.148,0c-0.097,0.003-0.175,0.002-0.266,0.004   c-0.384-0.004-0.767-0.01-1.147-0.027c-2.992-0.255-6.253-2.186-8.319-4.933c-0.664-0.881-1.917-1.06-2.801-0.396   c-0.821,0.617-1.023,1.741-0.514,2.606c-10.327-4.58-17.767-14.453-18.857-26.485c-0.017-0.127-0.022-0.255-0.03-0.391   c-0.008-0.139-0.017-0.284-0.033-0.491c-0.027-0.331-0.059-0.663-0.053-1.002c0.002-0.151-0.002-0.303-0.005-0.455l-0.005-0.531   c0-6.013,4.896-16.336,6.674-19.601c0.06-0.1,0.11-0.205,0.152-0.315l0.03-0.074c0.618-1.503,2.262-5.559,4.077-10.487   c0.234,0.825,0.5,1.657,0.796,2.484c0.685,1.935,1.486,3.673,2.321,5.032c1.92,3.102,6.393,6.008,6.896,6.33   c0.467,0.298,1.038,0.389,1.574,0.25c0.537-0.138,0.992-0.493,1.258-0.98c0.214-0.393,5.245-9.711,5.64-17.295   c0.294-5.632-0.531-10.121-1.451-13.239c3.364,1.955,8.032,5.436,11.633,11.083c3.486,5.467,7.456,20.358,7.495,20.508   c0.205,0.773,0.852,1.35,1.643,1.466c0.803,0.121,1.577-0.25,1.995-0.931l1.116-1.816c1.894-3.081,3.324-6.384,4.271-9.85   c1.639,3.04,3.662,7.114,4.778,10.576c1.931,5.983,3.274,15.767,3.309,16.857C82.104,71.878,74.347,83.085,63.226,88.136z"/><path d="M56.211,64.875c-1.175-1.296-2.217-2.699-3.32-4.185c-0.432-0.581-0.863-1.162-1.303-1.735   c-0.758-0.988-2.418-0.988-3.176,0c-0.439,0.574-0.871,1.154-1.303,1.735c-1.104,1.485-2.146,2.888-3.32,4.184   c-0.706,0.78-1.438,1.521-2.215,2.307c-0.967,0.979-1.966,1.991-2.903,3.076c-3.167,3.666-4.676,7.314-4.482,10.844   c0.025,0.465,0.079,0.939,0.161,1.41c0.17,0.972,1.014,1.658,1.969,1.658c0.113,0,0.229-0.01,0.345-0.03   c1.088-0.189,1.817-1.225,1.628-2.313c-0.056-0.316-0.092-0.633-0.108-0.942c-0.135-2.46,1.048-5.156,3.516-8.012   c0.85-0.983,1.759-1.904,2.723-2.879c0.771-0.781,1.568-1.589,2.333-2.432c1.18-1.303,2.233-2.693,3.246-4.054   c1.013,1.361,2.066,2.751,3.25,4.058l0.486,0.527c0.756,0.808,2.022,0.848,2.827,0.093c0.806-0.755,0.848-2.021,0.093-2.827   L56.211,64.875z"/></g><text x="0" y="115" fill="#000000" font-size="5px" font-weight="bold" font-family="'Helvetica Neue', Helvetica, Arial-Unicode, Arial, Sans-serif">Created by Maxim Kulikov</text><text x="0" y="120" fill="#000000" font-size="5px" font-weight="bold" font-family="'Helvetica Neue', Helvetica, Arial-Unicode, Arial, Sans-serif">from the Noun Project</text></svg>